<svg xmlns="http://www.w3.org/2000/svg" width="600" height="662.678" viewBox="0 0 600 662.678"><path d="M221.099 497.662a33.971 33.971 0 0 0-5.62-3.288 64.954 64.954 0 0 1-5.62-2.932c-1.72-1.014-3.158-2.145-4.312-3.394-1.155-1.248-1.732-2.815-1.732-4.701 0-2.167.79-3.887 2.369-5.16 1.578-1.273 3.64-1.908 6.185-1.908a20.4 20.4 0 0 1 3.605.317c1.177.212 2.273.472 3.287.778 1.013.307 1.92.625 2.721.954.801.33 1.485.614 2.05.848v-4.947c-1.037-.236-2.463-.483-4.276-.743-1.815-.258-3.877-.388-6.186-.388-4.713 0-8.46 1.025-11.239 3.075-2.781 2.05-4.171 5.007-4.171 8.871 0 2.498.566 4.56 1.697 6.185a17.513 17.513 0 0 0 4.206 4.242 34.215 34.215 0 0 0 5.443 3.18c1.955.92 3.77 1.898 5.443 2.934 1.672 1.037 3.075 2.216 4.206 3.534 1.131 1.32 1.696 2.97 1.696 4.949 0 3.017-.872 5.266-2.615 6.75-1.744 1.485-4.17 2.227-7.281 2.227-1.226 0-2.428-.105-3.605-.318a33.074 33.074 0 0 1-3.358-.778 36.225 36.225 0 0 1-2.969-.99 26.986 26.986 0 0 1-2.368-1.024v4.877c.283.095.801.212 1.555.353.753.143 1.65.294 2.686.46 1.036.165 2.168.306 3.394.425 1.225.116 2.45.176 3.675.176a27.94 27.94 0 0 0 6.503-.742c2.074-.495 3.9-1.296 5.48-2.403a12.368 12.368 0 0 0 3.781-4.242c.942-1.72 1.413-3.805 1.413-6.256 0-2.591-.577-4.747-1.731-6.467a17.618 17.618 0 0 0-4.312-4.454zm45.63 7.033c0 1.65-.06 3.347-.177 5.09-.119 1.743-.543 3.335-1.273 4.772-.732 1.437-1.885 2.615-3.464 3.533-1.58.92-3.83 1.38-6.75 1.38-2.545 0-4.514-.554-5.903-1.662-1.39-1.107-2.403-2.462-3.04-4.064a16.58 16.58 0 0 1-1.13-5.055 69.581 69.581 0 0 1-.177-4.559v-30.254l-13.22 1.625v1.201c1.178.142 2.215.26 3.11.354.896.095 1.638.307 2.228.637.588.33 1.025.813 1.307 1.448.283.636.424 1.568.424 2.793v22.196c0 2.451.142 4.771.425 6.962.282 2.192.965 4.112 2.05 5.762 1.083 1.65 2.71 2.958 4.877 3.923 2.167.966 5.16 1.449 8.978 1.449 3.958 0 7.02-.554 9.19-1.661 2.166-1.106 3.746-2.533 4.736-4.277.989-1.743 1.566-3.71 1.731-5.903.165-2.19.248-4.37.248-6.538v-29.971h-4.17v30.819zm46.617-25.625c-1.201-1.672-2.734-2.897-4.594-3.675-1.863-.778-3.936-1.225-6.221-1.343a129.733 129.733 0 0 0-6.61-.176h-17.106v1.201c1.507.236 2.732.495 3.676.777.942.284 1.661.649 2.156 1.096.494.448.824 1.025.99 1.732.164.707.247 1.603.247 2.686v40.08h6.15v-22.902h3.18c2.167 0 4.419-.06 6.751-.177 2.333-.117 4.477-.566 6.433-1.343a11.157 11.157 0 0 0 4.842-3.676c1.273-1.673 1.909-4.04 1.909-7.104 0-3.11-.601-5.502-1.803-7.176zm-6.255 12.513c-.755 1.296-1.745 2.251-2.97 2.862-1.226.614-2.628.99-4.205 1.132-1.58.141-3.194.211-4.843.211h-3.04v-14.42c0-1.036.047-1.861.142-2.474.094-.612.341-1.084.742-1.414.4-.329 1-.553 1.803-.672.8-.116 1.908-.176 3.322-.176 3.157 0 5.643.731 7.458 2.191 1.813 1.462 2.721 3.936 2.721 7.423 0 2.262-.377 4.04-1.13 5.337z" fill="#f00826"/><linearGradient id="a" gradientUnits="userSpaceOnUse" x1="362.682" x2="362.682" y2="566.735"><stop offset=".398" stop-color="#3a4281"/><stop offset=".43" stop-color="#353d7a"/><stop offset=".566" stop-color="#222b5f"/><stop offset=".705" stop-color="#141e4c"/><stop offset=".848" stop-color="#0c1741"/><stop offset="1" stop-color="#09143d"/></linearGradient><path d="M362.682 566.735c0-6.565-8.087-22.26-7.62-27.108.229-2.38 2.055-3.522 3.87-4.065v-4.26h-2.663L362.682 0l6.413 531.301h-2.663v4.26c1.815.544 3.641 1.686 3.87 4.066.467 4.848-7.62 20.543-7.62 27.108z" fill="url(#a)"/><path d="M33.93 211.762H13.22v-21.56L0 191.828v1.201c1.178.142 2.215.26 3.11.354.895.095 1.637.307 2.227.636.59.33 1.025.813 1.308 1.45.283.635.424 1.567.424 2.792v39.515h6.15v-23.257H33.93v23.257h6.15v-47.574h-6.15v21.56zm42.024 22.055c1.248 1.509 2.793 2.675 4.63 3.499 1.838.824 3.935 1.237 6.292 1.237 4.948 0 8.635-1.52 11.063-4.56 2.426-3.039 3.64-7.22 3.64-12.546s-1.308-9.543-3.923-12.654c-2.616-3.11-6.256-4.666-10.922-4.666-2.592 0-4.806.425-6.644 1.273s-3.347 2.027-4.525 3.535c-1.178 1.508-2.05 3.334-2.615 5.478-.565 2.145-.848 4.513-.848 7.104 0 2.545.329 4.854.99 6.928.659 2.074 1.613 3.864 2.862 5.372zm2.333-17.036c.117-1.697.46-3.275 1.025-4.736a8.932 8.932 0 0 1 2.616-3.676c1.177-.99 2.802-1.484 4.877-1.484 1.884 0 3.404.494 4.56 1.484 1.153.99 2.05 2.216 2.686 3.676.636 1.46 1.048 3.04 1.237 4.736.188 1.696.283 3.276.283 4.736 0 1.367-.072 2.875-.213 4.524a16.377 16.377 0 0 1-1.06 4.63 9.113 9.113 0 0 1-2.58 3.641c-1.155.99-2.746 1.484-4.772 1.484-1.885 0-3.405-.495-4.56-1.484-1.155-.99-2.049-2.215-2.685-3.676a17.05 17.05 0 0 1-1.272-4.665c-.213-1.65-.319-3.134-.319-4.454 0-1.46.059-3.04.177-4.736zm81.821 20.995V212.61c0-1.273-.117-2.427-.353-3.464-.236-1.036-.66-1.92-1.272-2.651-.613-.73-1.473-1.308-2.58-1.732-1.108-.424-2.51-.637-4.206-.637-1.792 0-3.358.366-4.701 1.096-1.343.732-2.498 1.591-3.464 2.58-.966.99-1.744 2.015-2.332 3.075-.59 1.06-1.026 1.944-1.308 2.651h-.142v-9.402l-10.815 1.697v1.202c.518.048 1.083.118 1.696.212.612.095 1.19.295 1.732.6.542.308 1.001.767 1.379 1.38.376.612.565 1.437.565 2.473v26.085h5.443V220.95c0-1.177.283-2.532.848-4.064a20.514 20.514 0 0 1 2.227-4.348 15.663 15.663 0 0 1 3.182-3.499c1.201-.965 2.438-1.448 3.71-1.448 1.225 0 2.18.2 2.863.6.683.401 1.178.943 1.485 1.626.306.684.483 1.474.53 2.368.046.896.07 1.815.07 2.757v22.833h5.443zm35.31-3.96c1.247 1.51 2.791 2.676 4.63 3.5 1.837.824 3.934 1.237 6.29 1.237 4.948 0 8.635-1.52 11.063-4.56 2.427-3.039 3.64-7.22 3.64-12.546s-1.307-9.543-3.922-12.654c-2.616-3.11-6.257-4.666-10.922-4.666-2.592 0-4.806.425-6.644 1.273s-3.347 2.027-4.525 3.535c-1.178 1.508-2.05 3.334-2.615 5.478-.565 2.145-.848 4.513-.848 7.104 0 2.545.329 4.854.99 6.928.659 2.074 1.613 3.864 2.862 5.372zm2.332-17.035c.117-1.697.46-3.275 1.025-4.736a8.933 8.933 0 0 1 2.616-3.676c1.177-.99 2.802-1.484 4.877-1.484 1.884 0 3.404.494 4.56 1.484 1.153.99 2.049 2.216 2.685 3.676.637 1.46 1.049 3.04 1.237 4.736.188 1.696.283 3.276.283 4.736 0 1.367-.07 2.875-.212 4.524a16.377 16.377 0 0 1-1.06 4.63 9.113 9.113 0 0 1-2.58 3.641c-1.156.99-2.746 1.484-4.772 1.484-1.885 0-3.405-.495-4.56-1.484-1.155-.99-2.05-2.215-2.685-3.676a17.05 17.05 0 0 1-1.273-4.665c-.212-1.65-.318-3.134-.318-4.454 0-1.46.058-3.04.177-4.736zm53.298-8.907c.542.33 1.001.802 1.38 1.414.376.613.565 1.485.565 2.616v25.872h5.443V220.81c0-1.083.081-2.273.247-3.57.164-1.295.53-2.51 1.096-3.64a8.021 8.021 0 0 1 2.403-2.863c1.036-.777 2.404-1.166 4.1-1.166.377 0 .766.06 1.166.176.4.119.79.225 1.167.319v-5.867c-.142-.047-.353-.072-.636-.072-1.697 0-3.088.296-4.17.884-1.086.59-1.98 1.32-2.687 2.191a10.359 10.359 0 0 0-1.626 2.758 39.92 39.92 0 0 0-.92 2.58h-.14v-8.413l-10.816 1.697v1.202c.518.048 1.084.118 1.697.212.612.095 1.19.307 1.731.636zm62.1-14.491c.424-.66.753-1.202.99-1.626.235-.424.353-.824.353-1.201 0-.754-.272-1.344-.813-1.768a2.955 2.955 0 0 0-1.873-.636c-1.085 0-1.85.224-2.298.671-.448.449-.837 1.214-1.166 2.298l-2.403 8.13h3.04l4.17-5.868zm4.206 13.749c-1.06-1.013-2.322-1.767-3.782-2.262-1.461-.495-3.016-.743-4.665-.743-2.593 0-4.784.366-6.574 1.096-1.792.732-3.252 1.792-4.383 3.182-1.131 1.39-1.956 3.086-2.474 5.089-.52 2.004-.778 4.277-.778 6.822 0 5.937 1.437 10.461 4.312 13.571 2.874 3.111 6.928 4.666 12.159 4.666 2.214 0 4.123-.166 5.725-.495 1.602-.329 2.616-.588 3.04-.777v-2.333c-.802.237-1.626.436-2.474.6a13.21 13.21 0 0 1-2.545.248c-2.45 0-4.594-.553-6.432-1.66a16.03 16.03 0 0 1-4.631-4.172 17.965 17.965 0 0 1-2.792-5.478c-.613-1.98-.919-3.817-.919-5.514v-1.484h20.641v-1.06c0-2.121-.307-3.947-.918-5.479-.613-1.53-1.45-2.803-2.51-3.817zm-2.722 7.952h-14.42c.046-.612.177-1.378.389-2.297.212-.919.6-1.814 1.166-2.686.566-.872 1.343-1.626 2.333-2.262.99-.637 2.285-.954 3.887-.954 1.036 0 1.968.212 2.793.636.824.424 1.52.979 2.085 1.661.566.684 1 1.485 1.308 2.403.306.92.46 1.874.46 2.864v.635zM20.5 284.266c2.073.047 3.487.472 4.241 1.272.754.802 1.131 2.357 1.131 4.666v12.724h-.141c-.283-.566-.684-1.166-1.202-1.803a10.86 10.86 0 0 0-1.908-1.802c-.755-.566-1.65-1.036-2.686-1.414-1.038-.377-2.192-.566-3.464-.566-2.216 0-4.125.472-5.726 1.414a12.252 12.252 0 0 0-3.994 3.782c-1.06 1.58-1.838 3.405-2.333 5.478-.494 2.075-.742 4.266-.742 6.574 0 2.499.283 4.796.848 6.893.566 2.097 1.402 3.9 2.51 5.407a12.034 12.034 0 0 0 4.135 3.57c1.65.872 3.534 1.308 5.655 1.308 1.273 0 2.391-.177 3.358-.53.965-.354 1.813-.801 2.545-1.343a9.43 9.43 0 0 0 1.838-1.767c.494-.637.883-1.238 1.166-1.803h.141v4.665h5.444V281.51L20.5 283.065v1.201zm5.372 31.669c0 1.367-.13 2.816-.389 4.347a14.71 14.71 0 0 1-1.378 4.241c-.66 1.297-1.532 2.368-2.615 3.217-1.085.848-2.428 1.272-4.03 1.272-1.65 0-2.98-.518-3.993-1.555-1.015-1.036-1.803-2.309-2.368-3.817a19.779 19.779 0 0 1-1.131-4.737c-.19-1.649-.283-3.086-.283-4.312 0-1.413.106-2.969.318-4.665.212-1.697.624-3.275 1.237-4.736.612-1.46 1.437-2.674 2.474-3.64 1.036-.966 2.379-1.45 4.03-1.45 1.6 0 2.933.437 3.993 1.308 1.06.873 1.896 1.956 2.51 3.252a15.389 15.389 0 0 1 1.272 4.206c.235 1.509.353 2.922.353 4.24v2.829zm23.045-33.295c-1.226 0-2.24.353-3.04 1.06-.802.707-1.202 1.626-1.202 2.757 0 .944.165 1.65.495 2.121.33.472.753.848 1.272 1.131.377.19.73.307 1.06.354.33.047.625.095.884.14.259.049.471.142.637.284.164.14.247.424.247.848 0 .66-.118 1.308-.353 1.944a9.856 9.856 0 0 1-.884 1.802 16.45 16.45 0 0 1-1.096 1.556c-.377.471-.706.872-.99 1.201h2.333l1.273-1.484a19.944 19.944 0 0 0 1.696-2.333 15.426 15.426 0 0 0 1.45-3.004c.4-1.107.6-2.298.6-3.57 0-1.65-.448-2.863-1.343-3.64-.896-.778-1.908-1.167-3.04-1.167zm42.625 42.095c-.236.873-.555 1.568-.954 2.086-.402.519-.955.883-1.662 1.095-.707.213-1.65.319-2.827.319h-7.635a52.54 52.54 0 0 1-3.075-.071c-.777-.047-1.367-.2-1.767-.46-.4-.258-.66-.66-.777-1.202-.118-.54-.177-1.33-.177-2.368v-16.611h8.977c1.508 0 2.686.118 3.535.353.848.236 1.495.6 1.944 1.096.447.495.753 1.12.919 1.873.164.755.341 1.65.53 2.686h1.626V298.9h-1.626a25.42 25.42 0 0 1-.495 2.332 4.363 4.363 0 0 1-.99 1.838c-.471.52-1.13.931-1.98 1.237-.847.307-2.003.46-3.463.46h-8.977V290.84c0-.942.035-1.72.106-2.333.07-.612.248-1.095.53-1.449.283-.353.718-.588 1.308-.707.589-.117 1.378-.176 2.368-.176h7.422c1.46 0 2.591.13 3.393.389.801.26 1.402.648 1.803 1.166.4.519.671 1.143.813 1.873.141.731.306 1.544.494 2.439h2.192l-.354-8.624H59.378v1.202c1.556.236 2.793.494 3.712.777.919.283 1.636.66 2.155 1.131a3.37 3.37 0 0 1 1.026 1.767c.164.707.247 1.555.247 2.545v40.151h27.427l.495-9.613H92.25c-.237 1.367-.472 2.486-.707 3.357zm19.298 7.034c1.79 0 3.45-.201 4.983-.601 1.53-.4 2.863-1.001 3.994-1.802a8.286 8.286 0 0 0 2.65-3.11c.637-1.273.955-2.804.955-4.595 0-1.838-.413-3.382-1.237-4.63a11.514 11.514 0 0 0-3.075-3.147 24.263 24.263 0 0 0-3.994-2.226 56.991 56.991 0 0 1-3.994-1.944c-1.226-.66-2.25-1.378-3.075-2.156-.825-.777-1.237-1.755-1.237-2.934 0-.848.165-1.555.495-2.12a4.062 4.062 0 0 1 1.308-1.379 5.826 5.826 0 0 1 1.873-.777 9.634 9.634 0 0 1 2.191-.248c.99 0 1.945.119 2.863.354.92.236 1.743.494 2.474.777.73.283 1.379.578 1.945.884.565.307.989.53 1.272.671v-4.24l-3.04-.708c-1.414-.329-3.016-.495-4.807-.495-2.074 0-3.841.225-5.302.672-1.46.449-2.65 1.084-3.57 1.909a7.377 7.377 0 0 0-2.014 2.933c-.424 1.131-.636 2.38-.636 3.747 0 1.555.412 2.875 1.237 3.958.824 1.085 1.849 2.027 3.075 2.828a30.406 30.406 0 0 0 3.994 2.191 48.906 48.906 0 0 1 3.994 2.05c1.225.707 2.25 1.474 3.075 2.297.824.826 1.237 1.85 1.237 3.075 0 2.216-.696 3.771-2.085 4.666-1.391.896-3.146 1.343-5.267 1.343-1.084 0-2.156-.142-3.216-.424a19.175 19.175 0 0 1-2.863-.99 26.342 26.342 0 0 1-2.156-1.06c-.59-.33-.978-.541-1.166-.636v4.453c.894.283 2.061.59 3.499.92 1.437.328 3.31.494 5.62.494zm30.183-44.463l-5.372 4.767v6.048h-5.443v2.403h5.443v21.278c0 1.65.082 3.1.247 4.347.165 1.25.577 2.286 1.237 3.11.66.825 1.672 1.45 3.04 1.873 1.366.425 3.227.637 5.584.637 1.32 0 2.662-.141 4.03-.424v-2.616c-.425.095-.86.166-1.308.212-.449.048-.908.071-1.378.071-1.744 0-3.182-.33-4.313-.99-1.13-.66-1.696-2.05-1.696-4.17v-23.328h8.695v-2.403h-8.766v-10.815zm19.262-3.5c-.777.778-1.166 1.71-1.166 2.793 0 1.084.389 2.014 1.166 2.792.778.777 1.733 1.166 2.863 1.166 1.084 0 2.015-.364 2.793-1.095.777-.73 1.166-1.685 1.166-2.863 0-1.084-.389-2.015-1.166-2.793s-1.71-1.166-2.793-1.166c-1.13 0-2.085.389-2.863 1.166zm-1.52 17.249c.519.307.966.766 1.343 1.378.377.613.566 1.438.566 2.474v26.084h5.443v-33.648l-10.744 1.697v1.201c.47.048 1.025.119 1.661.213a4.762 4.762 0 0 1 1.732.6zm43.757 29.442v-2.333c-.802.236-1.626.436-2.474.6a13.21 13.21 0 0 1-2.545.248c-2.451 0-4.595-.553-6.432-1.661a16.03 16.03 0 0 1-4.631-4.171 17.964 17.964 0 0 1-2.792-5.478c-.613-1.98-.919-3.818-.919-5.514v-1.484h20.641v-1.06c0-2.121-.307-3.947-.919-5.479-.613-1.531-1.449-2.803-2.51-3.817-1.06-1.013-2.32-1.768-3.781-2.262-1.461-.495-3.016-.743-4.665-.743-2.593 0-4.784.366-6.575 1.096-1.791.732-3.251 1.792-4.382 3.181-1.131 1.39-1.957 3.087-2.475 5.09-.519 2.003-.777 4.277-.777 6.821 0 5.938 1.437 10.462 4.312 13.572 2.874 3.11 6.928 4.666 12.159 4.666 2.214 0 4.123-.166 5.725-.495 1.602-.329 2.616-.588 3.04-.777zm-19.333-24.494c.211-.92.6-1.814 1.166-2.686.565-.872 1.343-1.626 2.333-2.262.99-.637 2.285-.955 3.887-.955 1.036 0 1.968.213 2.793.637.824.424 1.52.978 2.085 1.66.565.684 1 1.485 1.308 2.404.306.92.46 1.873.46 2.863v.636H182.8c.046-.612.176-1.378.389-2.297zm56.302-6.292c-.613-.73-1.473-1.307-2.58-1.731-1.108-.425-2.51-.637-4.206-.637-1.791 0-3.357.366-4.7 1.096-1.343.732-2.499 1.59-3.464 2.58-.967.99-1.744 2.015-2.333 3.075-.59 1.06-1.025 1.944-1.308 2.651h-.141v-9.402l-10.815 1.697v1.201c.518.048 1.083.119 1.696.213.612.095 1.19.295 1.732.6.541.308 1 .767 1.378 1.379.377.613.566 1.438.566 2.474v26.084h5.443v-16.824c0-1.177.283-2.532.848-4.064a20.513 20.513 0 0 1 2.227-4.348 15.664 15.664 0 0 1 3.181-3.499c1.202-.965 2.439-1.449 3.71-1.449 1.226 0 2.18.201 2.864.601.683.4 1.177.943 1.485 1.626.305.684.482 1.473.53 2.368.046.896.07 1.815.07 2.757v22.832h5.443v-25.165c0-1.272-.118-2.427-.353-3.464-.237-1.036-.66-1.92-1.273-2.65zm40.787 0c-.613-.73-1.474-1.307-2.58-1.731-1.108-.425-2.51-.637-4.206-.637-1.792 0-3.358.366-4.701 1.096-1.343.732-2.498 1.59-3.464 2.58-.966.99-1.744 2.015-2.332 3.075-.59 1.06-1.026 1.944-1.309 2.651h-.14v-9.402l-10.816 1.697v1.201c.518.048 1.083.119 1.696.213.612.095 1.19.295 1.732.6.541.308 1 .767 1.379 1.379.376.613.565 1.438.565 2.474v26.084h5.443v-16.824c0-1.177.283-2.532.848-4.064a20.512 20.512 0 0 1 2.227-4.348 15.663 15.663 0 0 1 3.181-3.499c1.202-.965 2.44-1.449 3.711-1.449 1.225 0 2.18.201 2.863.601.683.4 1.178.943 1.485 1.626.306.684.482 1.473.53 2.368.046.896.07 1.815.07 2.757v22.832h5.443v-25.165c0-1.272-.118-2.427-.353-3.464-.236-1.036-.66-1.92-1.272-2.65zm35.06 31.563c1.602-.329 2.616-.588 3.04-.777v-2.333c-.802.236-1.626.436-2.474.6a13.21 13.21 0 0 1-2.545.248c-2.45 0-4.595-.553-6.432-1.661a16.03 16.03 0 0 1-4.631-4.171 17.965 17.965 0 0 1-2.792-5.478c-.613-1.98-.919-3.818-.919-5.514v-1.484h20.641v-1.06c0-2.121-.307-3.947-.919-5.479-.613-1.531-1.449-2.803-2.51-3.817-1.06-1.013-2.32-1.768-3.781-2.262-1.461-.495-3.016-.743-4.665-.743-2.593 0-4.784.366-6.575 1.096-1.791.732-3.251 1.792-4.382 3.181-1.131 1.39-1.957 3.087-2.475 5.09-.519 2.003-.777 4.277-.777 6.821 0 5.938 1.437 10.462 4.312 13.572 2.874 3.11 6.928 4.666 12.159 4.666 2.214 0 4.123-.166 5.725-.495zm-16.293-25.27c.211-.92.6-1.815 1.166-2.687.565-.872 1.343-1.626 2.333-2.262.99-.637 2.285-.955 3.887-.955 1.036 0 1.968.213 2.793.637.824.424 1.52.978 2.085 1.66.565.684 1 1.485 1.308 2.404.306.92.459 1.873.459 2.863v.636h-14.42c.046-.612.176-1.378.389-2.297zM20.5 378.512c2.073.047 3.487.472 4.241 1.272.754.802 1.131 2.357 1.131 4.665v12.725h-.141c-.283-.566-.684-1.167-1.202-1.803a10.88 10.88 0 0 0-1.908-1.803c-.755-.566-1.65-1.036-2.686-1.414-1.038-.376-2.192-.565-3.464-.565-2.216 0-4.125.472-5.726 1.413a12.252 12.252 0 0 0-3.994 3.782c-1.06 1.58-1.838 3.406-2.333 5.479-.494 2.075-.742 4.266-.742 6.574 0 2.499.283 4.796.848 6.892.566 2.098 1.402 3.9 2.51 5.408a12.04 12.04 0 0 0 4.135 3.57c1.65.871 3.534 1.308 5.655 1.308 1.273 0 2.391-.178 3.358-.531.965-.353 1.813-.8 2.545-1.343a9.43 9.43 0 0 0 1.838-1.767c.494-.636.883-1.237 1.166-1.802h.141v4.665h5.444v-49.482L20.5 377.31v1.202zm5.372 31.668c0 1.367-.13 2.817-.389 4.348a14.72 14.72 0 0 1-1.378 4.241c-.66 1.296-1.532 2.368-2.615 3.216-1.085.849-2.428 1.273-4.03 1.273-1.65 0-2.98-.518-3.993-1.556-1.015-1.036-1.803-2.308-2.368-3.817a19.767 19.767 0 0 1-1.131-4.736c-.19-1.649-.283-3.086-.283-4.312 0-1.414.106-2.969.318-4.665.212-1.697.624-3.276 1.237-4.736.612-1.46 1.437-2.675 2.474-3.64 1.036-.967 2.379-1.45 4.03-1.45 1.6 0 2.933.437 3.993 1.308a9.296 9.296 0 0 1 2.51 3.251 15.392 15.392 0 0 1 1.272 4.207c.235 1.508.353 2.922.353 4.24v2.828zm39.232-33.295c-1.226 0-2.238.354-3.04 1.06-.801.708-1.201 1.627-1.201 2.758 0 .943.165 1.65.495 2.121a3.66 3.66 0 0 0 1.272 1.13c.377.19.73.307 1.06.354.33.048.624.096.884.141.258.048.47.141.636.284.165.14.248.423.248.848 0 .66-.119 1.307-.354 1.943a9.823 9.823 0 0 1-.883 1.803c-.354.565-.72 1.084-1.096 1.556-.378.471-.707.872-.99 1.201h2.333l1.273-1.485a19.9 19.9 0 0 0 1.696-2.333 15.397 15.397 0 0 0 1.45-3.004c.399-1.107.6-2.297.6-3.57 0-1.649-.449-2.862-1.343-3.64-.896-.777-1.909-1.167-3.04-1.167zm63.69 7.035c-1.413-2.192-3.298-3.912-5.654-5.161-2.357-1.248-5.302-1.874-8.836-1.874-3.535 0-6.48.579-8.836 1.733-2.357 1.156-4.254 2.792-5.69 4.913-1.44 2.12-2.464 4.7-3.076 7.74-.613 3.04-.92 6.444-.92 10.215 0 3.534.284 6.798.85 9.79.565 2.993 1.555 5.585 2.968 7.776 1.414 2.191 3.31 3.9 5.69 5.124 2.38 1.225 5.384 1.839 9.014 1.839 3.486 0 6.408-.578 8.765-1.733 2.356-1.153 4.241-2.791 5.655-4.912 1.414-2.12 2.426-4.688 3.04-7.705.611-3.016.919-6.41.919-10.18 0-3.534-.295-6.797-.884-9.79-.59-2.992-1.59-5.585-3.004-7.775zm-3.322 25.023c-.189 2.57-.671 4.913-1.449 7.034-.777 2.12-1.92 3.864-3.428 5.23-1.509 1.368-3.605 2.051-6.291 2.051-2.782 0-4.949-.719-6.504-2.157-1.555-1.436-2.71-3.24-3.463-5.407-.755-2.167-1.215-4.524-1.38-7.07a110.286 110.286 0 0 1-.247-7.138c0-2.45.094-4.96.283-7.53.188-2.567.672-4.912 1.45-7.033.777-2.12 1.943-3.863 3.498-5.23 1.556-1.366 3.676-2.05 6.363-2.05 2.732 0 4.865.719 6.397 2.156 1.53 1.438 2.674 3.24 3.428 5.408.754 2.167 1.213 4.535 1.379 7.103.164 2.57.247 4.961.247 7.176 0 2.403-.095 4.89-.283 7.457zm46.795-16.47c-1.084.59-1.98 1.32-2.686 2.19a10.352 10.352 0 0 0-1.626 2.758 39.916 39.916 0 0 0-.919 2.58h-.141v-8.412l-10.815 1.697v1.201c.518.048 1.083.118 1.696.213.612.094 1.19.306 1.732.636.541.33 1 .802 1.379 1.413.376.614.565 1.485.565 2.616v25.872h5.443v-16.966c0-1.083.082-2.272.247-3.57.165-1.295.53-2.508 1.096-3.64a8.03 8.03 0 0 1 2.403-2.863c1.036-.777 2.404-1.166 4.1-1.166.377 0 .766.06 1.167.177.4.118.788.224 1.166.318v-5.867c-.141-.047-.353-.071-.636-.071-1.697 0-3.087.295-4.17.884zm42.554 25.837l-10.886-25.943h-9.755v1.201c1.272.141 2.274.378 3.005.707.73.33 1.342.755 1.837 1.273.495.519.907 1.155 1.237 1.908.33.755.707 1.65 1.132 2.687l10.744 25.872h3.252l12.653-33.648h-3.817l-9.402 25.943zm56.727-23.716c-1.06-1.013-2.321-1.768-3.782-2.262-1.46-.495-3.016-.743-4.665-.743-2.592 0-4.784.366-6.574 1.096-1.792.731-3.252 1.792-4.383 3.181-1.13 1.39-1.956 3.087-2.474 5.089-.519 2.004-.777 4.278-.777 6.822 0 5.938 1.437 10.462 4.312 13.572 2.874 3.11 6.927 4.666 12.158 4.666 2.215 0 4.123-.166 5.726-.495 1.601-.329 2.616-.59 3.04-.778v-2.333c-.802.237-1.626.436-2.475.6a13.17 13.17 0 0 1-2.544.25c-2.451 0-4.595-.555-6.433-1.662a16.023 16.023 0 0 1-4.63-4.172 17.952 17.952 0 0 1-2.793-5.478c-.613-1.98-.918-3.817-.918-5.513v-1.485h20.64v-1.06c0-2.121-.307-3.947-.918-5.478-.613-1.531-1.45-2.804-2.51-3.817zm-2.721 7.952h-14.42c.046-.612.176-1.379.388-2.297.212-.92.601-1.814 1.166-2.687.566-.871 1.344-1.626 2.333-2.261.99-.637 2.286-.955 3.888-.955 1.036 0 1.967.213 2.792.636.824.425 1.52.979 2.085 1.661.566.684 1.001 1.485 1.309 2.403.305.92.459 1.874.459 2.864v.636zm47.572 5.584a24.303 24.303 0 0 0-3.993-2.227 56.994 56.994 0 0 1-3.994-1.943c-1.226-.66-2.251-1.379-3.075-2.156-.825-.778-1.237-1.756-1.237-2.934 0-.848.164-1.555.495-2.12a4.062 4.062 0 0 1 1.307-1.38 5.826 5.826 0 0 1 1.874-.776 9.635 9.635 0 0 1 2.191-.248c.99 0 1.944.118 2.863.354.919.235 1.743.494 2.474.777.73.283 1.378.577 1.944.884.565.307.99.53 1.272.67v-4.24l-3.04-.707c-1.413-.329-3.016-.495-4.806-.495-2.075 0-3.841.225-5.302.672-1.461.448-2.65 1.084-3.57 1.908-.918.826-1.59 1.802-2.014 2.934s-.637 2.38-.637 3.747c0 1.555.413 2.874 1.238 3.958.824 1.085 1.849 2.026 3.075 2.828a30.466 30.466 0 0 0 3.994 2.19 49.089 49.089 0 0 1 3.994 2.051c1.224.707 2.25 1.474 3.075 2.297.823.825 1.237 1.85 1.237 3.075 0 2.215-.696 3.77-2.086 4.665-1.39.896-3.146 1.344-5.266 1.344-1.085 0-2.156-.142-3.217-.424a19.176 19.176 0 0 1-2.862-.99 26.33 26.33 0 0 1-2.156-1.06c-.59-.33-.979-.541-1.167-.637v4.454c.895.282 2.062.59 3.5.92 1.437.328 3.31.494 5.62.494 1.79 0 3.45-.202 4.983-.601 1.53-.4 2.862-1.001 3.993-1.802s2.015-1.839 2.651-3.112c.637-1.271.955-2.803.955-4.594 0-1.838-.413-3.381-1.238-4.63a11.506 11.506 0 0 0-3.075-3.146zM130.998 144.932h-18.843v-35.43h-3.25v38.156h22.093v-2.726zm27.734 2.726h3.223v-14.361l13.786-23.796h-3.722l-11.662 20.808L148.8 109.5h-3.826l13.758 23.796v14.36zm45.516-1.599c2.176 1.415 4.678 2.123 7.509 2.123 4.053 0 7.298-1.066 9.735-3.198 2.437-2.13 3.875-5.206 4.311-9.224h-3.25c-.402 3.232-1.458 5.656-3.17 7.272-1.712 1.616-4.255 2.424-7.626 2.424-3.407 0-6.111-1.31-8.111-3.934s-3-6.137-3-10.543v-4.668c0-4.563 1.025-8.139 3.079-10.727 2.052-2.588 4.808-3.881 8.267-3.881 6.238 0 9.758 3.24 10.562 9.722h3.25c-.385-3.896-1.761-6.945-4.128-9.146-2.368-2.202-5.595-3.302-9.684-3.302-2.9 0-5.464.712-7.691 2.136-2.227 1.424-3.935 3.446-5.124 6.067s-1.781 5.625-1.781 9.015v4.952c.017 3.338.62 6.303 1.808 8.898 1.188 2.594 2.87 4.599 5.044 6.014zm71.383-1.127h-20.52v-15.566h17.846v-2.726h-17.846v-14.414H275.5v-2.725h-23.612v38.157h23.743v-2.726zm-5.399-45.626h-3.8l-5.006 7.299 2.752.013 6.054-7.312zm33.657 45.626v-15.566h17.847v-2.726h-17.847v-14.414h20.39v-2.725h-23.613v38.157h23.743v-2.726h-20.52z" fill="#101d48"/><linearGradient id="b" gradientUnits="userSpaceOnUse" x1="259.279" y1="73.192" x2="516.711" y2="519.076"><stop offset=".398" stop-color="#3a4281"/><stop offset=".43" stop-color="#353d7a"/><stop offset=".566" stop-color="#222b5f"/><stop offset=".705" stop-color="#141e4c"/><stop offset=".848" stop-color="#0c1741"/><stop offset="1" stop-color="#09143d"/></linearGradient><path d="M292.034 54.28S491.64 58.139 537.922 213.99s-7.573 238.317-66.477 294.697-147.036 86.673-147.036 86.673 93.57-2.35 176.798-73.09c22.538-19.156 62.86-53.245 84.68-113.855 22.282-61.894 12.496-115.19 8.524-135.37-15.012-76.277-58.864-122.603-67.82-131.77-41.476-42.46-86.678-57.961-116.153-68.068-48.555-16.65-91.117-19.248-118.404-18.925z" fill="url(#b)"/><linearGradient id="c" gradientUnits="userSpaceOnUse" x1="335.178" y1="239.323" x2="504.602" y2="490.504"><stop offset=".398" stop-color="#d78163"/><stop offset=".47" stop-color="#d86454"/><stop offset=".571" stop-color="#d94242"/><stop offset=".674" stop-color="#da2735"/><stop offset=".778" stop-color="#db142b"/><stop offset=".886" stop-color="#db0925"/><stop offset="1" stop-color="#db0523"/></linearGradient><path d="M500.059 392.087c0-151.941-122.866-181.103-122.866-181.103s160.452 17.977 151.474 183.364c-3.522 64.77-55.586 118.204-117.638 159.246 48.01-43.173 89.03-98.486 89.03-161.507z" fill="url(#c)"/><linearGradient id="d" gradientUnits="userSpaceOnUse" x1="122.647" y1="633.968" x2="486.171" y2="633.968"><stop offset="0" stop-color="#09143d"/><stop offset=".253" stop-color="#0c1741"/><stop offset=".49" stop-color="#141e4c"/><stop offset=".72" stop-color="#222b5f"/><stop offset=".946" stop-color="#353d7a"/><stop offset="1" stop-color="#3a4281"/></linearGradient><path d="M122.647 662.678s164.09-68.16 363.524-55.959c0 0-2.104 20.196-53.435 39.55 0 0-200.695-18.741-310.09 16.41z" fill="url(#d)"/></svg>